<svg width="129" height="38" viewBox="0 0 129 38" fill="none" xmlns="http://www.w3.org/2000/svg">
<path d="M128.074 33.7037C128.074 35.5651 126.565 37.0741 124.704 37.0741H3.37037C1.50896 37.0741 0 35.5735 0 33.7121C0 27.3084 0 13.1301 0 3.36457C0 1.50317 1.50897 0 3.37037 0L124.704 0C126.565 0 128.074 1.50897 128.074 3.37037C128.074 13.4815 128.074 23.5926 128.074 33.7037Z" fill="white"/>
<path d="M63.619 22.2569C61.5895 22.2569 59.9313 23.7839 59.9313 25.8824C59.9313 27.9723 61.5895 29.5078 63.619 29.5078C65.6486 29.5078 67.3067 27.9723 67.3067 25.8824C67.3067 23.7839 65.6486 22.2569 63.619 22.2569ZM63.619 28.0832C62.5049 28.0832 61.5463 27.179 61.5463 25.8824C61.5463 24.5772 62.5049 23.6815 63.619 23.6815C64.7331 23.6815 65.6917 24.5772 65.6917 25.8824C65.6917 27.179 64.7245 28.0832 63.619 28.0832ZM55.57 22.2569C53.5405 22.2569 51.8823 23.7839 51.8823 25.8824C51.8823 27.9723 53.5405 29.5078 55.57 29.5078C57.5995 29.5078 59.2577 27.9723 59.2577 25.8824C59.2577 23.7839 57.5995 22.2569 55.57 22.2569ZM55.57 28.0832C54.4559 28.0832 53.4973 27.179 53.4973 25.8824C53.4973 24.5772 54.4559 23.6815 55.57 23.6815C56.6841 23.6815 57.6427 24.5772 57.6427 25.8824C57.6427 27.179 56.6841 28.0832 55.57 28.0832ZM46.001 23.3744V24.9099H49.7319C49.6196 25.7715 49.326 26.4112 48.8855 26.8463C48.3415 27.3837 47.4951 27.9723 46.0097 27.9723C43.7124 27.9723 41.9161 26.1468 41.9161 23.8777C41.9161 21.6086 43.7124 19.783 46.0097 19.783C47.2446 19.783 48.1515 20.2608 48.8165 20.8835L49.9133 19.8001C48.9805 18.9215 47.7456 18.2476 46.001 18.2476C42.8574 18.2476 40.2147 20.7726 40.2147 23.8862C40.2147 26.9913 42.8574 29.5249 46.001 29.5249C47.7024 29.5249 48.9805 28.9789 49.9823 27.9467C51.0101 26.9316 51.3296 25.4985 51.3296 24.3469C51.3296 23.9886 51.3037 23.6559 51.2432 23.3829H46.001V23.3744ZM85.132 24.5687C84.8297 23.7583 83.897 22.2569 81.9884 22.2569C80.097 22.2569 78.5252 23.7241 78.5252 25.8824C78.5252 27.9126 80.0798 29.5078 82.1698 29.5078C83.8538 29.5078 84.8297 28.4927 85.227 27.9041L83.9747 27.0766C83.5602 27.6823 82.9902 28.0832 82.1698 28.0832C81.3493 28.0832 80.762 27.7079 80.3907 26.9828L85.3047 24.9781L85.132 24.5687ZM80.123 25.78C80.0798 24.381 81.2198 23.6644 82.0402 23.6644C82.6793 23.6644 83.2234 23.9801 83.4047 24.4322L80.123 25.78ZM76.133 29.2946H77.748V18.6314H76.133V29.2946ZM73.4903 23.0673H73.4298C73.0671 22.6408 72.3762 22.2569 71.4953 22.2569C69.6558 22.2569 67.9717 23.8521 67.9717 25.8994C67.9717 27.9297 69.6558 29.5164 71.4953 29.5164C72.3676 29.5164 73.0671 29.1325 73.4298 28.6889H73.4817V29.2093C73.4817 30.5997 72.7303 31.3419 71.5212 31.3419C70.5367 31.3419 69.9235 30.6424 69.6731 30.0538L68.2653 30.6338C68.6712 31.5978 69.7421 32.775 71.5212 32.775C73.4126 32.775 75.0103 31.6746 75.0103 28.996V22.4787H73.4817V23.0673H73.4903ZM71.6335 28.0832C70.5194 28.0832 69.5867 27.1619 69.5867 25.8994C69.5867 24.6198 70.5194 23.69 71.6335 23.69C72.7303 23.69 73.5939 24.6284 73.5939 25.8994C73.6026 27.1619 72.7389 28.0832 71.6335 28.0832ZM92.6974 18.6314H88.837V29.2946H90.4519V25.2511H92.706C94.4937 25.2511 96.2469 23.9715 96.2469 21.9413C96.2469 19.911 94.4764 18.6314 92.6974 18.6314ZM92.7319 23.7668H90.4433V20.1072H92.7319C93.941 20.1072 94.6233 21.0967 94.6233 21.9327C94.6233 22.7687 93.941 23.7668 92.7319 23.7668ZM102.698 22.2398C101.532 22.2398 100.323 22.7517 99.8223 23.8692L101.256 24.4578C101.558 23.8692 102.128 23.673 102.724 23.673C103.562 23.673 104.408 24.1677 104.417 25.0464V25.1573C104.123 24.9952 103.501 24.7478 102.733 24.7478C101.187 24.7478 99.6237 25.5838 99.6237 27.1449C99.6237 28.5695 100.885 29.4908 102.301 29.4908C103.38 29.4908 103.985 29.0131 104.356 28.45H104.408V29.2775H105.963V25.1914C105.971 23.2976 104.538 22.2398 102.698 22.2398ZM102.5 28.0832C101.973 28.0832 101.239 27.8188 101.239 27.179C101.239 26.3601 102.154 26.0444 102.949 26.0444C103.657 26.0444 103.994 26.198 104.417 26.4027C104.296 27.3837 103.432 28.0832 102.5 28.0832ZM111.637 22.4702L109.789 27.0937H109.737L107.819 22.4702H106.084L108.959 28.9363L107.319 32.5276H109.003L113.433 22.4702H111.637ZM97.1278 29.2946H98.7428V18.6314H97.1278V29.2946Z" fill="#141F2E"/>
<path d="M13.8638 8.41235C13.6282 8.66423 13.4901 9.05424 13.4901 9.54988V27.523C13.4901 28.0267 13.6282 28.4167 13.8638 28.6605L13.9207 28.7174L23.9879 18.6583V18.5364V18.4145L13.9207 8.35547L13.8638 8.41235Z" fill="url(#paint0_linear_1_3174)"/>
<path d="M27.3433 22.0146L23.9876 18.6588V18.5369V18.4151L27.3433 15.0593L27.4164 15.1L31.3897 17.3588C32.5272 18.0007 32.5272 19.057 31.3897 19.707L27.4164 21.9658L27.3433 22.0146Z" fill="url(#paint1_linear_1_3174)"/>
<path d="M27.4163 21.9739L23.9874 18.5369L13.8633 28.6609C14.2371 29.0591 14.8546 29.1078 15.5534 28.7097L27.4163 21.9739Z" fill="url(#paint2_linear_1_3174)"/>
<path d="M27.4165 15.1082L15.5455 8.36421C14.8467 7.96607 14.2292 8.01482 13.8554 8.41296L23.9876 18.537L27.4165 15.1082Z" fill="url(#paint3_linear_1_3174)"/>
<path opacity="0.2" d="M27.3436 21.8921L15.5457 28.5954C14.8876 28.9692 14.2944 28.9448 13.9207 28.6036L13.8638 28.6604L13.9207 28.7173C14.3026 29.0586 14.8876 29.0829 15.5457 28.7092L27.4167 21.9652L27.3436 21.8921Z" fill="black"/>
<path opacity="0.12" d="M13.8637 28.547C13.628 28.2951 13.4899 27.9051 13.4899 27.4094V27.5313C13.4899 28.0351 13.628 28.4251 13.8637 28.6688L13.9205 28.612L13.8637 28.547Z" fill="black"/>
<path opacity="0.12" d="M31.3901 19.5931L27.3356 21.8926L27.4087 21.9657L31.382 19.7069C31.9507 19.3819 32.2351 18.9594 32.2351 18.5369C32.1945 18.9188 31.9101 19.3006 31.3901 19.5931Z" fill="black"/>
<path opacity="0.25" d="M15.5453 8.47762L31.3896 17.4804C31.9014 17.7729 32.194 18.1467 32.2427 18.5367C32.2427 18.1142 31.9583 17.6835 31.3896 17.3667L15.5453 8.36387C14.4078 7.72197 13.4815 8.25824 13.4815 9.55828V9.68016C13.4815 8.37199 14.4159 7.83572 15.5453 8.47762Z" fill="white"/>
<path d="M45.4797 11.0269H46.2927V13.339C45.9991 13.5817 45.6576 13.7681 45.268 13.8979C44.8784 14.0278 44.4719 14.0927 44.0484 14.0927C43.4499 14.0927 42.9107 13.9628 42.4308 13.7031C41.9509 13.4378 41.5726 13.0764 41.296 12.6191C41.0249 12.1561 40.8894 11.6367 40.8894 11.0608C40.8894 10.4849 41.0249 9.96542 41.296 9.50244C41.5726 9.03946 41.9509 8.67811 42.4308 8.41839C42.9164 8.15867 43.4612 8.02881 44.0654 8.02881C44.5396 8.02881 44.9687 8.10785 45.3527 8.26594C45.7422 8.41839 46.0725 8.64423 46.3436 8.94347L45.8185 9.46856C45.3442 9.01123 44.7711 8.78256 44.0992 8.78256C43.6475 8.78256 43.241 8.88137 42.8797 9.07898C42.524 9.27095 42.2445 9.54196 42.0412 9.89202C41.838 10.2364 41.7363 10.626 41.7363 11.0608C41.7363 11.4899 41.838 11.8794 42.0412 12.2295C42.2445 12.5739 42.524 12.8449 42.8797 13.0425C43.241 13.2401 43.6447 13.339 44.0908 13.339C44.6215 13.339 45.0845 13.2119 45.4797 12.9578V11.0269Z" fill="#141F2E"/>
<path d="M52.2166 13.2881V14.025H47.9142V8.09656H52.098V8.83338H48.7612V10.6542H51.7338V11.3741H48.7612V13.2881H52.2166Z" fill="#141F2E"/>
<path d="M54.7651 8.83338H52.7325V8.09656H57.6361V8.83338H55.6036V14.025H54.7651V8.83338Z" fill="#141F2E"/>
<path d="M60.833 8.09656H61.6799V14.025H60.833V8.09656Z" fill="#141F2E"/>
<path d="M68.5532 8.09656V14.025H67.8587L64.3017 9.60407V14.025H63.4548V8.09656H64.1492L67.7063 12.5174V8.09656H68.5532Z" fill="#141F2E"/>
<path d="M75.2783 14.0927C74.6799 14.0927 74.1407 13.9628 73.6607 13.7031C73.1808 13.4378 72.8025 13.0736 72.5259 12.6106C72.2549 12.1476 72.1194 11.631 72.1194 11.0608C72.1194 10.4905 72.2549 9.97389 72.5259 9.51091C72.8025 9.04793 73.1808 8.68658 73.6607 8.42686C74.1407 8.16149 74.6799 8.02881 75.2783 8.02881C75.8712 8.02881 76.4076 8.16149 76.8875 8.42686C77.3674 8.68658 77.7429 9.04793 78.0139 9.51091C78.2849 9.96824 78.4204 10.4849 78.4204 11.0608C78.4204 11.6367 78.2849 12.1561 78.0139 12.6191C77.7429 13.0764 77.3674 13.4378 76.8875 13.7031C76.4076 13.9628 75.8712 14.0927 75.2783 14.0927ZM75.2783 13.339C75.7131 13.339 76.1027 13.2401 76.4471 13.0425C76.7971 12.8449 77.071 12.5739 77.2686 12.2295C77.4718 11.8794 77.5735 11.4899 77.5735 11.0608C77.5735 10.6317 77.4718 10.2449 77.2686 9.90049C77.071 9.55043 76.7971 9.27659 76.4471 9.07898C76.1027 8.88137 75.7131 8.78256 75.2783 8.78256C74.8436 8.78256 74.4484 8.88137 74.0927 9.07898C73.7426 9.27659 73.4659 9.55043 73.2627 9.90049C73.0651 10.2449 72.9663 10.6317 72.9663 11.0608C72.9663 11.4899 73.0651 11.8794 73.2627 12.2295C73.4659 12.5739 73.7426 12.8449 74.0927 13.0425C74.4484 13.2401 74.8436 13.339 75.2783 13.339Z" fill="#141F2E"/>
<path d="M84.8133 8.09656V14.025H84.1188L80.5618 9.60407V14.025H79.7148V8.09656H80.4093L83.9663 12.5174V8.09656H84.8133Z" fill="#141F2E"/>
<defs>
<linearGradient id="paint0_linear_1_3174" x1="23.0938" y1="9.36284" x2="9.45768" y2="22.999" gradientUnits="userSpaceOnUse">
<stop stop-color="#00A0FF"/>
<stop offset="0.00657445" stop-color="#00A1FF"/>
<stop offset="0.2601" stop-color="#00BEFF"/>
<stop offset="0.5122" stop-color="#00D2FF"/>
<stop offset="0.7604" stop-color="#00DFFF"/>
<stop offset="1" stop-color="#00E3FF"/>
</linearGradient>
<linearGradient id="paint1_linear_1_3174" x1="32.872" y1="18.5382" x2="13.2114" y2="18.5382" gradientUnits="userSpaceOnUse">
<stop stop-color="#FFE000"/>
<stop offset="0.4087" stop-color="#FFBD00"/>
<stop offset="0.7754" stop-color="#FFA500"/>
<stop offset="1" stop-color="#FF9C00"/>
</linearGradient>
<linearGradient id="paint2_linear_1_3174" x1="25.5531" y1="20.4026" x2="7.06133" y2="38.8943" gradientUnits="userSpaceOnUse">
<stop stop-color="#FF3A44"/>
<stop offset="1" stop-color="#C31162"/>
</linearGradient>
<linearGradient id="paint3_linear_1_3174" x1="11.3099" y1="2.42976" x2="19.5673" y2="10.6871" gradientUnits="userSpaceOnUse">
<stop stop-color="#32A071"/>
<stop offset="0.0685" stop-color="#2DA771"/>
<stop offset="0.4762" stop-color="#15CF74"/>
<stop offset="0.8009" stop-color="#06E775"/>
<stop offset="1" stop-color="#00F076"/>
</linearGradient>
</defs>
</svg>
