<svg width="129" height="38" viewBox="0 0 129 38" fill="none" xmlns="http://www.w3.org/2000/svg">
<path d="M124.704 0.0739746H3.37052C1.50906 0.0739746 6.73328e-05 1.58303 0.00012292 3.44449C0.000424856 13.5555 0.000153809 23.6666 7.21131e-05 33.7777C5.70732e-05 35.6391 1.50902 37.148 3.37043 37.148H124.704C126.565 37.148 128.074 35.6391 128.074 33.7777V3.44434C128.074 1.58294 126.565 0.0739746 124.704 0.0739746Z" fill="white"/>
<path d="M30.0734 17.4085C30.0734 14.8143 32.3344 13.5587 32.4206 13.4748C31.1168 11.7173 29.2039 11.4655 28.5086 11.3824C26.8559 11.2146 25.204 12.3031 24.4216 12.3031C23.5513 12.3031 22.2476 11.3824 20.8569 11.3824C19.031 11.3824 17.3783 12.3871 16.4218 13.9767C14.5089 17.1575 15.9005 21.844 17.7264 24.4391C18.682 25.6947 19.7264 27.1181 21.1171 27.0333C22.5079 26.9502 23.03 26.1965 24.6827 26.1965C26.3345 26.1965 26.7688 27.0342 28.2475 27.0342C29.7252 27.0342 30.6817 25.7786 31.5511 24.523C32.5946 23.1005 33.0298 21.677 33.0298 21.5931C32.9427 21.51 30.0734 20.5054 30.0734 17.4085ZM27.4864 9.19094C28.1954 8.35163 28.727 7.28428 28.6382 6.14062C27.5751 6.21693 26.1579 6.75103 25.4489 7.59033C24.7407 8.27618 24.1204 9.41984 24.2971 10.488C25.4489 10.5643 26.6895 9.95394 27.4864 9.19094Z" fill="#141F2E"/>
<path d="M50.0693 28.0487H48.1089L47.0397 24.9713H43.2961L42.3164 28.0487H40.4446L44.1873 17.5999H46.5047L50.0693 28.0487ZM46.6827 23.6742L45.7038 20.9215C45.6144 20.679 45.4363 19.9499 45.0793 18.9783C44.9333 19.6343 44.755 20.2828 44.5451 20.9215L43.5654 23.6759H46.6836L46.6827 23.6742ZM58.8199 24.2125C58.8199 25.5741 58.4698 26.5948 57.6817 27.446C56.9822 28.1267 56.195 28.4675 55.1445 28.4675C54.0949 28.4675 53.3068 28.1267 52.8698 27.3612V31.5314H51.032V23.0206C51.032 22.1694 51.0321 21.3191 50.9443 20.3823H52.5196L52.6073 21.659C53.2199 20.7231 54.0949 20.2127 55.3192 20.2127C56.2819 20.2127 57.07 20.5527 57.6817 21.3191C58.4698 21.9998 58.8199 22.9358 58.8199 24.2125ZM56.9822 24.2125C56.9822 23.4461 56.8067 22.7654 56.4574 22.3398C56.1072 21.8294 55.5824 21.5742 54.8821 21.5742C54.4442 21.5742 54.0071 21.7438 53.657 21.9998C53.3077 22.2542 53.0444 22.6806 52.9575 23.1062C52.8698 23.3605 52.8698 23.5318 52.8698 23.6165V24.9781C52.8698 25.5741 53.0444 25.9997 53.3946 26.4252C53.7439 26.8508 54.2695 27.0204 54.7944 27.0204C55.4947 27.0204 56.0195 26.766 56.3697 26.2548C56.8067 25.7445 56.9822 25.0637 56.9822 24.2117V24.2125ZM68.4447 24.2125C68.4447 25.5741 68.0954 26.5948 67.3073 27.446C66.607 28.1267 65.8197 28.4675 64.7693 28.4675C63.7196 28.4675 62.9324 28.1267 62.4945 27.3612V31.5314H60.6568V23.0206C60.6568 22.1694 60.6568 21.3191 60.5699 20.3823H62.1443L62.2321 21.659C62.8447 20.7231 63.7196 20.2127 64.9448 20.2127C65.9075 20.2127 66.6947 20.5527 67.3073 21.3191C68.0945 21.9998 68.4447 22.9358 68.4447 24.2125ZM66.607 24.2125C66.607 23.4461 66.4323 22.7654 66.0822 22.3398C65.7328 21.8294 65.2072 21.5742 64.5068 21.5742C64.0698 21.5742 63.6319 21.7438 63.2817 21.9998C62.9324 22.2542 62.67 22.6806 62.5822 23.1062C62.4945 23.3605 62.4945 23.5318 62.4945 23.6165V24.9781C62.4945 25.5741 62.67 25.9997 63.0193 26.4252C63.3695 26.8508 63.8943 27.0204 64.42 27.0204C65.1194 27.0204 65.6442 26.766 65.9944 26.2548C66.4323 25.7445 66.6078 25.0637 66.6078 24.2117L66.607 24.2125ZM78.9444 25.6605C78.9444 26.6041 78.59 27.3756 77.9697 27.9758C77.2609 28.6625 76.1976 28.9194 74.8685 28.9194C73.6281 28.9194 72.6534 28.6617 71.9446 28.2327L72.3876 26.7754C73.185 27.2043 74.0711 27.4621 75.0458 27.4621C75.7546 27.4621 76.2862 27.29 76.6407 27.0331C76.9951 26.6897 77.1723 26.3464 77.1723 25.8326C77.1723 25.4037 76.9951 24.9747 76.7293 24.7178C76.3748 24.3745 75.8432 24.1176 75.1344 23.8599C73.0964 23.174 72.1218 22.0592 72.1218 20.6875C72.1218 19.7439 72.4762 19.058 73.1851 18.4578C73.8939 17.8576 74.7799 17.5999 76.0204 17.5999C77.0837 17.5999 77.8811 17.772 78.59 18.1145L78.1469 19.5726C77.5267 19.2293 76.8179 19.058 75.9318 19.058C75.3116 19.058 74.7799 19.2293 74.4255 19.487C74.1597 19.7439 73.9825 20.0872 73.9825 20.5154C73.9825 20.9443 74.1597 21.2868 74.5141 21.6302C74.7799 21.8879 75.4002 22.1448 76.1976 22.4882C77.0282 22.7781 77.7845 23.2464 78.4128 23.8599C78.7571 24.3982 78.9414 25.0224 78.9444 25.6605ZM85.0692 21.6361H82.9521V25.2892C82.9521 26.1819 83.3201 26.6686 84.0571 26.6686C84.426 26.6686 84.702 26.6686 84.8861 26.5872L84.9781 27.886C84.61 28.0487 84.1491 28.0487 83.5042 28.0487C82.768 28.0487 82.1231 27.886 81.755 27.4807C81.2941 27.0738 81.1101 26.4252 81.1101 25.4511V21.6361H79.8202V20.3373H81.1101V18.958L82.9521 18.4705V20.3373H85.0701V21.6361H85.0692ZM93.8198 24.0896C93.8198 25.2214 93.4731 26.1904 92.7804 26.9178C92.0026 27.6443 91.0509 28.0487 89.8386 28.0487C88.6271 28.0487 87.6746 27.6443 86.9827 26.9178C86.2909 26.1904 85.9442 25.3019 85.9442 24.171C85.9442 23.0401 86.291 22.0702 87.0688 21.3436C87.7615 20.6163 88.8 20.2127 90.0115 20.2127C91.223 20.2127 92.1755 20.6163 92.8673 21.3436C93.4731 22.0702 93.8198 22.9587 93.8198 24.0905V24.0896ZM91.9157 24.171C91.9157 23.4436 91.7427 22.8781 91.396 22.3932C91.0501 21.8277 90.4443 21.5047 89.7517 21.5047C89.0599 21.5047 88.4541 21.8277 88.1074 22.3932C87.7615 22.8781 87.5885 23.5241 87.5885 24.171C87.5885 24.8975 87.7615 25.463 88.1082 25.9479C88.4541 26.5134 89.0599 26.8364 89.7525 26.8364C90.4443 26.8364 90.964 26.5143 91.3968 25.9479C91.7427 25.463 91.9157 24.817 91.9157 24.171ZM99.0697 21.9447C98.8976 21.9447 98.7263 21.8616 98.4691 21.8616C97.8684 21.8616 97.3538 22.1092 97.0105 22.5221C96.7294 22.9666 96.5809 23.4813 96.5819 24.0065V28.0487H94.78V22.7696C94.78 21.8625 94.78 21.1198 94.6948 20.3772H96.2386L96.3238 21.8616H96.4098C96.5819 21.3674 96.9253 20.9545 97.2678 20.6247C97.6972 20.3772 98.1257 20.2127 98.5543 20.2127H98.9836V21.9447H99.0688H99.0697ZM106.944 23.7666C106.944 24.0896 106.944 24.3321 106.86 24.494H101.632C101.632 25.2214 101.885 25.7869 102.39 26.1904C102.875 26.5576 103.467 26.7563 104.077 26.7559C104.836 26.7559 105.595 26.6753 106.185 26.4329L106.438 27.5638C105.68 27.8868 104.837 28.0487 103.824 28.0487C102.644 28.0487 101.632 27.7257 100.957 26.9983C100.282 26.3523 99.9447 25.3825 99.9447 24.2515C99.9447 23.1206 100.282 22.1516 100.872 21.4242C101.547 20.6163 102.474 20.2119 103.655 20.2119C104.752 20.2119 105.679 20.6163 106.185 21.4242C106.776 22.0702 106.944 22.8781 106.944 23.7666ZM105.343 23.3631C105.343 22.8781 105.258 22.4746 105.005 22.0702C104.667 21.5853 104.246 21.3436 103.655 21.3436C103.065 21.3436 102.644 21.5853 102.306 21.9897C102.053 22.3127 101.885 22.7976 101.8 23.2825H105.342V23.3631H105.343Z" fill="#141F2E"/>
<path d="M42.1777 11.9604H40.3804V6.4088H42.2346C42.7786 6.4088 43.2457 6.51994 43.6361 6.74223C44.0264 6.9627 44.3255 7.27986 44.5333 7.6937C44.743 8.10574 44.8478 8.6 44.8478 9.17649C44.8478 9.75479 44.7421 10.2518 44.5306 10.6674C44.321 11.0831 44.0174 11.4029 43.6198 11.627C43.2222 11.8493 42.7415 11.9604 42.1777 11.9604ZM41.2181 11.2285H42.1316C42.5545 11.2285 42.906 11.149 43.1861 10.99C43.4662 10.8292 43.6758 10.5969 43.815 10.2933C43.9541 9.98792 44.0237 9.61564 44.0237 9.17649C44.0237 8.74096 43.9541 8.3714 43.815 8.06779C43.6776 7.76418 43.4725 7.53377 43.1996 7.37655C42.9267 7.21932 42.5879 7.14071 42.1831 7.14071H41.2181V11.2285ZM47.5782 12.0445C47.1878 12.0445 46.8472 11.955 46.5562 11.7761C46.2653 11.5972 46.0394 11.3469 45.8785 11.0252C45.7177 10.7036 45.6373 10.3277 45.6373 9.89756C45.6373 9.46564 45.7177 9.08794 45.8785 8.76446C46.0394 8.44097 46.2653 8.18977 46.5562 8.01086C46.8472 7.83195 47.1878 7.7425 47.5782 7.7425C47.9685 7.7425 48.3092 7.83195 48.6001 8.01086C48.8911 8.18977 49.117 8.44097 49.2778 8.76446C49.4387 9.08794 49.5191 9.46564 49.5191 9.89756C49.5191 10.3277 49.4387 10.7036 49.2778 11.0252C49.117 11.3469 48.8911 11.5972 48.6001 11.7761C48.3092 11.955 47.9685 12.0445 47.5782 12.0445ZM47.5809 11.3641C47.8339 11.3641 48.0435 11.2972 48.2098 11.1635C48.3761 11.0298 48.4989 10.8517 48.5785 10.6295C48.6598 10.4072 48.7004 10.1623 48.7004 9.89485C48.7004 9.62919 48.6598 9.38522 48.5785 9.16294C48.4989 8.93885 48.3761 8.75904 48.2098 8.6235C48.0435 8.48796 47.8339 8.42019 47.5809 8.42019C47.3261 8.42019 47.1146 8.48796 46.9466 8.6235C46.7803 8.75904 46.6565 8.93885 46.5752 9.16294C46.4957 9.38522 46.4559 9.62919 46.4559 9.89485C46.4559 10.1623 46.4957 10.4072 46.5752 10.6295C46.6565 10.8517 46.7803 11.0298 46.9466 11.1635C47.1146 11.2972 47.3261 11.3641 47.5809 11.3641ZM51.1998 11.9604L49.9745 7.79671H50.8121L51.6281 10.8545H51.6687L52.4874 7.79671H53.325L54.1382 10.8409H54.1789L54.9894 7.79671H55.827L54.6045 11.9604H53.7777L52.9319 8.95421H52.8696L52.0238 11.9604H51.1998ZM57.4067 9.48823V11.9604H56.5962V7.79671H57.3742V8.47441H57.4257C57.5215 8.25393 57.6715 8.07683 57.8757 7.9431C58.0817 7.80936 58.3411 7.7425 58.6537 7.7425C58.9374 7.7425 59.1859 7.80214 59.3992 7.92141C59.6124 8.03888 59.7778 8.21417 59.8952 8.4473C60.0127 8.68042 60.0714 8.96867 60.0714 9.31203V11.9604H59.2609V9.40962C59.2609 9.10782 59.1823 8.87198 59.0251 8.70211C58.8678 8.53043 58.6519 8.44459 58.3772 8.44459C58.1893 8.44459 58.0221 8.48525 57.8757 8.56657C57.7311 8.64789 57.6164 8.76717 57.5314 8.92439C57.4483 9.07981 57.4067 9.26776 57.4067 9.48823ZM61.969 6.4088V11.9604H61.1584V6.4088H61.969ZM64.8132 12.0445C64.4229 12.0445 64.0822 11.955 63.7913 11.7761C63.5003 11.5972 63.2744 11.3469 63.1136 11.0252C62.9527 10.7036 62.8723 10.3277 62.8723 9.89756C62.8723 9.46564 62.9527 9.08794 63.1136 8.76446C63.2744 8.44097 63.5003 8.18977 63.7913 8.01086C64.0822 7.83195 64.4229 7.7425 64.8132 7.7425C65.2036 7.7425 65.5442 7.83195 65.8352 8.01086C66.1261 8.18977 66.352 8.44097 66.5129 8.76446C66.6737 9.08794 66.7541 9.46564 66.7541 9.89756C66.7541 10.3277 66.6737 10.7036 66.5129 11.0252C66.352 11.3469 66.1261 11.5972 65.8352 11.7761C65.5442 11.955 65.2036 12.0445 64.8132 12.0445ZM64.8159 11.3641C65.0689 11.3641 65.2786 11.2972 65.4448 11.1635C65.6111 11.0298 65.734 10.8517 65.8135 10.6295C65.8948 10.4072 65.9355 10.1623 65.9355 9.89485C65.9355 9.62919 65.8948 9.38522 65.8135 9.16294C65.734 8.93885 65.6111 8.75904 65.4448 8.6235C65.2786 8.48796 65.0689 8.42019 64.8159 8.42019C64.5611 8.42019 64.3497 8.48796 64.1816 8.6235C64.0154 8.75904 63.8916 8.93885 63.8102 9.16294C63.7307 9.38522 63.691 9.62919 63.691 9.89485C63.691 10.1623 63.7307 10.4072 63.8102 10.6295C63.8916 10.8517 64.0154 11.0298 64.1816 11.1635C64.3497 11.2972 64.5611 11.3641 64.8159 11.3641ZM68.8706 12.0526C68.6067 12.0526 68.3682 12.0038 68.1549 11.9062C67.9417 11.8068 67.7727 11.6632 67.648 11.4752C67.5251 11.2873 67.4637 11.0569 67.4637 10.784C67.4637 10.549 67.5089 10.3557 67.5992 10.2039C67.6896 10.0521 67.8116 9.93189 67.9652 9.84334C68.1188 9.75479 68.2905 9.68792 68.4802 9.64275C68.67 9.59757 68.8633 9.56323 69.0603 9.53974C69.3097 9.51082 69.5121 9.48733 69.6675 9.46926C69.823 9.44938 69.9359 9.41775 70.0064 9.37438C70.0769 9.33101 70.1121 9.26053 70.1121 9.16294V9.14396C70.1121 8.90722 70.0452 8.7238 69.9115 8.59368C69.7796 8.46356 69.5826 8.3985 69.3206 8.3985C69.0477 8.3985 68.8326 8.45904 68.6754 8.58013C68.52 8.6994 68.4125 8.83223 68.3528 8.97861L67.5911 8.80512C67.6814 8.55211 67.8134 8.3479 67.9869 8.19249C68.1622 8.03526 68.3637 7.92141 68.5914 7.85093C68.8191 7.77864 69.0585 7.7425 69.3097 7.7425C69.476 7.7425 69.6522 7.76238 69.8383 7.80214C70.0263 7.84009 70.2016 7.91057 70.3642 8.01357C70.5287 8.11658 70.6633 8.26387 70.7681 8.45543C70.8729 8.64518 70.9253 8.89186 70.9253 9.19547V11.9604H70.1338V11.3912H70.1013C70.0488 11.496 69.9702 11.599 69.8654 11.7002C69.7606 11.8014 69.626 11.8855 69.4615 11.9523C69.2971 12.0192 69.1001 12.0526 68.8706 12.0526ZM69.0468 11.402C69.2709 11.402 69.4624 11.3578 69.6215 11.2692C69.7823 11.1807 69.9043 11.065 69.9874 10.9222C70.0723 10.7777 70.1148 10.6231 70.1148 10.4587V9.92195C70.0859 9.95087 70.0299 9.97798 69.9467 10.0033C69.8654 10.0268 69.7724 10.0476 69.6675 10.0656C69.5627 10.0819 69.4606 10.0972 69.3612 10.1117C69.2618 10.1244 69.1787 10.1352 69.1118 10.1442C68.9546 10.1641 68.8109 10.1975 68.6808 10.2445C68.5525 10.2915 68.4495 10.3593 68.3718 10.4478C68.2959 10.5346 68.2579 10.6502 68.2579 10.7948C68.2579 10.9954 68.332 11.1472 68.4802 11.2502C68.6284 11.3514 68.8173 11.402 69.0468 11.402ZM73.5636 12.0418C73.2274 12.0418 72.9275 11.9559 72.6636 11.7842C72.4016 11.6108 72.1956 11.3641 72.0456 11.0442C71.8974 10.7225 71.8233 10.3367 71.8233 9.88671C71.8233 9.43673 71.8983 9.0518 72.0483 8.73193C72.2001 8.41206 72.4079 8.16719 72.6717 7.99731C72.9356 7.82744 73.2347 7.7425 73.569 7.7425C73.8274 7.7425 74.0353 7.78587 74.1925 7.87262C74.3515 7.95755 74.4744 8.05695 74.5611 8.1708C74.6497 8.28465 74.7184 8.38495 74.7672 8.47169H74.816V6.4088H75.6265V11.9604H74.8349V11.3126H74.7672C74.7184 11.4011 74.6479 11.5023 74.5557 11.6162C74.4654 11.73 74.3407 11.8294 74.1816 11.9144C74.0226 11.9993 73.8166 12.0418 73.5636 12.0418ZM73.7425 11.3505C73.9756 11.3505 74.1726 11.2891 74.3334 11.1662C74.4961 11.0415 74.619 10.8689 74.7021 10.6484C74.787 10.428 74.8295 10.1713 74.8295 9.87858C74.8295 9.58943 74.7879 9.33643 74.7048 9.11957C74.6217 8.90271 74.4997 8.73374 74.3389 8.61265C74.178 8.49157 73.9792 8.43103 73.7425 8.43103C73.4985 8.43103 73.2952 8.49428 73.1326 8.62079C72.9699 8.74729 72.847 8.91987 72.7639 9.13854C72.6826 9.35721 72.6419 9.60389 72.6419 9.87858C72.6419 10.1569 72.6835 10.4072 72.7666 10.6295C72.8497 10.8517 72.9726 11.0279 73.1353 11.1581C73.2997 11.2864 73.5021 11.3505 73.7425 11.3505ZM80.5574 12.0445C80.167 12.0445 79.8264 11.955 79.5354 11.7761C79.2444 11.5972 79.0185 11.3469 78.8577 11.0252C78.6969 10.7036 78.6164 10.3277 78.6164 9.89756C78.6164 9.46564 78.6969 9.08794 78.8577 8.76446C79.0185 8.44097 79.2444 8.18977 79.5354 8.01086C79.8264 7.83195 80.167 7.7425 80.5574 7.7425C80.9477 7.7425 81.2884 7.83195 81.5793 8.01086C81.8703 8.18977 82.0962 8.44097 82.257 8.76446C82.4178 9.08794 82.4983 9.46564 82.4983 9.89756C82.4983 10.3277 82.4178 10.7036 82.257 11.0252C82.0962 11.3469 81.8703 11.5972 81.5793 11.7761C81.2884 11.955 80.9477 12.0445 80.5574 12.0445ZM80.5601 11.3641C80.8131 11.3641 81.0227 11.2972 81.189 11.1635C81.3552 11.0298 81.4781 10.8517 81.5576 10.6295C81.639 10.4072 81.6796 10.1623 81.6796 9.89485C81.6796 9.62919 81.639 9.38522 81.5576 9.16294C81.4781 8.93885 81.3552 8.75904 81.189 8.6235C81.0227 8.48796 80.8131 8.42019 80.5601 8.42019C80.3053 8.42019 80.0938 8.48796 79.9257 8.6235C79.7595 8.75904 79.6357 8.93885 79.5544 9.16294C79.4749 9.38522 79.4351 9.62919 79.4351 9.89485C79.4351 10.1623 79.4749 10.4072 79.5544 10.6295C79.6357 10.8517 79.7595 11.0298 79.9257 11.1635C80.0938 11.2972 80.3053 11.3641 80.5601 11.3641ZM84.2135 9.48823V11.9604H83.403V7.79671H84.181V8.47441H84.2325C84.3283 8.25393 84.4783 8.07683 84.6825 7.9431C84.8885 7.80936 85.1478 7.7425 85.4605 7.7425C85.7442 7.7425 85.9927 7.80214 86.2059 7.92141C86.4192 8.03888 86.5845 8.21417 86.702 8.4473C86.8194 8.68042 86.8782 8.96867 86.8782 9.31203V11.9604H86.0677V9.40962C86.0677 9.10782 85.989 8.87198 85.8318 8.70211C85.6746 8.53043 85.4586 8.44459 85.184 8.44459C84.996 8.44459 84.8288 8.48525 84.6825 8.56657C84.5379 8.64789 84.4231 8.76717 84.3382 8.92439C84.2551 9.07981 84.2135 9.26776 84.2135 9.48823ZM91.929 7.79671V8.4473H89.6547V7.79671H91.929ZM90.2646 6.79915H91.0751V10.7379C91.0751 10.8951 91.0986 11.0135 91.1456 11.093C91.1926 11.1707 91.2531 11.224 91.3272 11.2529C91.4031 11.28 91.4854 11.2936 91.5739 11.2936C91.639 11.2936 91.6959 11.2891 91.7447 11.28C91.7935 11.271 91.8314 11.2638 91.8585 11.2584L92.0049 11.9279C91.9579 11.946 91.8911 11.9641 91.8043 11.9821C91.7176 12.002 91.6091 12.0129 91.479 12.0147C91.2658 12.0183 91.067 11.9803 90.8827 11.9008C90.6983 11.8213 90.5492 11.6984 90.4354 11.5321C90.3215 11.3659 90.2646 11.1572 90.2646 10.906V6.79915ZM93.7256 9.48823V11.9604H92.9151V6.4088H93.7147V8.47441H93.7662C93.8638 8.25032 94.0129 8.07231 94.2135 7.94038C94.4141 7.80846 94.6762 7.7425 94.9996 7.7425C95.2852 7.7425 95.5346 7.80123 95.7478 7.9187C95.9629 8.03616 96.1291 8.21146 96.2466 8.44459C96.3659 8.67591 96.4255 8.96505 96.4255 9.31203V11.9604H95.615V9.40962C95.615 9.10421 95.5364 8.86747 95.3791 8.6994C95.2219 8.52952 95.0032 8.44459 94.7231 8.44459C94.5316 8.44459 94.3599 8.48525 94.2081 8.56657C94.0581 8.64789 93.9397 8.76717 93.853 8.92439C93.768 9.07981 93.7256 9.26776 93.7256 9.48823ZM99.3016 12.0445C98.8914 12.0445 98.5381 11.9568 98.2417 11.7815C97.9471 11.6044 97.7194 11.3559 97.5586 11.0361C97.3996 10.7144 97.3201 10.3376 97.3201 9.90569C97.3201 9.4792 97.3996 9.1033 97.5586 8.77801C97.7194 8.45272 97.9435 8.19881 98.2309 8.01629C98.52 7.83376 98.858 7.7425 99.2447 7.7425C99.4796 7.7425 99.7073 7.78135 99.9278 7.85906C100.148 7.93677 100.346 8.05875 100.521 8.22501C100.697 8.39128 100.835 8.60723 100.936 8.87289C101.037 9.13674 101.088 9.45751 101.088 9.83521V10.1226H97.7782V9.51534H100.294C100.294 9.30209 100.25 9.11324 100.164 8.94879C100.077 8.78253 99.9549 8.65151 99.7977 8.55573C99.6423 8.45995 99.4597 8.41206 99.2501 8.41206C99.0224 8.41206 98.8236 8.46808 98.6537 8.58013C98.4857 8.69036 98.3556 8.83494 98.2634 9.01385C98.173 9.19095 98.1279 9.38342 98.1279 9.59124V10.0656C98.1279 10.3439 98.1767 10.5807 98.2742 10.7758C98.3736 10.971 98.5119 11.1201 98.689 11.2231C98.8661 11.3243 99.073 11.3749 99.3098 11.3749C99.4634 11.3749 99.6034 11.3532 99.7299 11.3099C99.8564 11.2647 99.9658 11.1978 100.058 11.1093C100.15 11.0207 100.221 10.9114 100.269 10.7813L101.037 10.9195C100.975 11.1454 100.865 11.3433 100.706 11.5132C100.549 11.6812 100.351 11.8123 100.112 11.9062C99.8754 11.9984 99.6052 12.0445 99.3016 12.0445Z" fill="#141F2E"/>
</svg>
