<svg width="21" height="21" viewBox="0 0 21 21" fill="none" xmlns="http://www.w3.org/2000/svg">
<path d="M4.80388 20.2557H0.604136V6.73136H4.80388V20.2557ZM2.70175 4.88652C1.35881 4.88652 0.269531 3.77418 0.269531 2.43124C0.269531 1.78618 0.525782 1.16753 0.981911 0.711403C1.43804 0.255274 2.05668 -0.000976563 2.70175 -0.000976562C3.34681 -0.000976563 3.96545 0.255274 4.42158 0.711403C4.87771 1.16753 5.13396 1.78618 5.13396 2.43124C5.13396 3.77418 4.04424 4.88652 2.70175 4.88652ZM20.5222 20.2557H16.3315V13.6722C16.3315 12.1031 16.2998 10.091 14.1479 10.091C11.9644 10.091 11.6298 11.7957 11.6298 13.5591V20.2557H7.4346V6.73136H11.4625V8.57621H11.5213C12.082 7.51362 13.4516 6.39224 15.495 6.39224C19.7453 6.39224 20.5267 9.19116 20.5267 12.8266V20.2557H20.5222Z" fill="#FAFAFA"/>
</svg>
