<svg width="16" height="16" viewBox="0 0 16 16" fill="none" xmlns="http://www.w3.org/2000/svg">
<mask id="mask0_1_3124" style="mask-type:alpha" maskUnits="userSpaceOnUse" x="0" y="0" width="16" height="16">
<circle cx="8" cy="8" r="8" fill="#D9D9D9"/>
</mask>
<g mask="url(#mask0_1_3124)">
<path d="M5.90629 0H-4.21484V5.30624H5.90629V0Z" fill="#00237C"/>
<path d="M-1.43646 0H-4.21484V1.66873L9.33785 10.4408L12.6369 9.10922L-1.43646 0Z" fill="white"/>
<path d="M-4.21484 0.139648V1.28719L9.51771 10.1753L10.0557 9.37568L-4.21484 0.139648Z" fill="#CF142B"/>
<path d="M20.166 0H10.0449V5.30624H20.166V0Z" fill="#00237C"/>
<path d="M17.3895 0H20.1663V1.66873L6.61361 10.4408L3.31458 9.10922L17.3895 0Z" fill="white"/>
<path d="M20.1651 0.139648V1.28719L6.43254 10.1753L5.89453 9.37568L20.1651 0.139648Z" fill="#CF142B"/>
<path d="M20.166 10.6934H10.0449V15.9996H20.166V10.6934Z" fill="#00237C"/>
<path d="M17.3895 16.0004H20.1663V14.3316L6.61361 5.55957L3.31458 6.89116L17.3895 16.0004Z" fill="white"/>
<path d="M20.1651 15.8593V14.7133L6.43254 5.82373L5.89453 6.6233L20.1651 15.8593Z" fill="#CF142B"/>
<path d="M5.90635 10.6934H-4.21478V15.9996H5.90635V10.6934Z" fill="#00237C"/>
<path d="M-1.4364 16.0004H-4.21478V14.3316L9.33791 5.55957L12.6369 6.89116L-1.4364 16.0004Z" fill="white"/>
<path d="M-4.21478 15.8593V14.7133L9.51777 5.82373L10.0558 6.6233L-4.21478 15.8593Z" fill="#CF142B"/>
<path d="M20.1658 5.30624H10.0652V0H5.84476V5.30624H-4.21484V10.5738H5.84476V15.9991H10.0652V10.5738H20.1658V5.30624Z" fill="white"/>
<path d="M20.1658 6.38419H9.16903V0H6.74091V6.38419H-4.21484V9.49586H6.74091V15.9991H9.16903V9.49586H20.1658V6.38419Z" fill="#CF142B"/>
</g>
</svg>
