<svg width="326" height="49" viewBox="0 0 326 49" fill="none" xmlns="http://www.w3.org/2000/svg">
<g clip-path="url(#clip0_1_3110)">
<path d="M0 8.46145V0.807861H33.9899V8.46145H21.2123V48.0447H12.7579V8.46145H0Z" fill="#FAFAFA"/>
<path d="M56.0495 12.3934L48.2083 31.6549H63.8908L56.0495 12.3934ZM59.6212 0.808105L79.285 48.0648H70.3757L66.5186 38.648H45.5607L41.7036 48.0648H32.7773L52.4412 0.808105H59.6212Z" fill="#FAFAFA"/>
<path d="M96.2902 0.807834V40.3911H115.002V48.0447H87.8358V0.785156H96.2902V0.807834Z" fill="#FAFAFA"/>
<path d="M172.408 0.808105L197.35 33.6108V0.808105H205.53V48.0648H198.644L173.171 14.6469V48.0648H164.99V0.808105H172.408Z" fill="#FAFAFA"/>
<path d="M240.09 41.3464C249.48 41.3464 256.64 34.0358 256.64 24.5312C256.64 15.1144 249.48 7.65359 240.09 7.65359C230.701 7.65359 223.541 15.0521 223.541 24.5312C223.509 34.0982 230.684 41.3464 240.09 41.3464ZM240.09 0C253.936 0 265.033 10.6498 265.033 24.5312C265.033 38.4125 253.95 49 240.09 49C226.296 49 215.225 38.4125 215.225 24.5312C215.225 10.6498 226.296 0 240.09 0Z" fill="#FAFAFA"/>
<path d="M284.847 0.807861L298.43 34.6934L312.078 0.807861H318.71L326 48.0645H317.885L313.285 17.9009L301.462 48.0645H295.443L283.618 17.8357L279.02 48.0645H270.902L278.193 0.807861H284.847Z" fill="#FAFAFA"/>
<path d="M132.591 40.3909L126.341 30.3789L124.137 31.7594V48.0445H154.628V40.3909H132.591Z" fill="#FAFAFA"/>
<path d="M134.202 34.6738L152.764 22.9808L154.227 17.5383L148.717 16.498L136.595 24.1289L132.591 17.7169V8.4617H154.143V0.808105H124.137V17.4646L107.691 27.8281L111.738 34.2912L127.694 24.2564L134.202 34.6738Z" fill="#FAFAFA"/>
</g>
<defs>
<clipPath id="clip0_1_3110">
<rect width="326" height="49" fill="white"/>
</clipPath>
</defs>
</svg>
