<svg width="23" height="19" viewBox="0 0 23 19" fill="none" xmlns="http://www.w3.org/2000/svg">
<path d="M20.2 4.73751C20.2141 4.93444 20.2141 5.13142 20.2141 5.32836C20.2141 11.3351 15.6422 18.2564 7.28607 18.2564C4.71171 18.2564 2.32025 17.5108 0.308594 16.2166C0.674362 16.2588 1.02601 16.2729 1.40585 16.2729C3.53001 16.2729 5.48542 15.5554 7.04691 14.3316C5.04933 14.2893 3.37529 12.9811 2.79852 11.1804C3.07989 11.2226 3.36122 11.2507 3.65667 11.2507C4.06461 11.2507 4.4726 11.1945 4.85239 11.096C2.77041 10.674 1.20888 8.84522 1.20888 6.63662V6.58038C1.81375 6.918 2.51719 7.12901 3.26271 7.15711C2.03884 6.34118 1.23702 4.94852 1.23702 3.37295C1.23702 2.52891 1.46206 1.7552 1.85597 1.07996C4.09271 3.83718 7.45486 5.63779 11.2249 5.83477C11.1546 5.49715 11.1124 5.14549 11.1124 4.7938C11.1124 2.28976 13.1381 0.25 15.6562 0.25C16.9644 0.25 18.1461 0.79863 18.9761 1.68488C20.003 1.48795 20.9877 1.10811 21.8599 0.587622C21.5223 1.64271 20.8048 2.52896 19.8623 3.09162C20.7767 2.99319 21.663 2.73992 22.4789 2.38827C21.86 3.28855 21.0863 4.09037 20.2 4.73751Z" fill="#FAFAFA"/>
</svg>
