<svg width="23" height="23" viewBox="0 0 23 23" fill="none" xmlns="http://www.w3.org/2000/svg">
<path d="M19.1368 3.39544C17.0317 1.28532 14.2282 0.124756 11.249 0.124756C5.09946 0.124756 0.0954578 5.12876 0.0954578 11.2783C0.0954578 13.2427 0.607916 15.1619 1.58259 16.855L0 22.6327L5.91336 21.0803C7.54117 21.9695 9.37497 22.4368 11.2439 22.4368H11.249C17.3934 22.4368 22.508 17.4328 22.508 11.2833C22.508 8.30399 21.2419 5.50556 19.1368 3.39544ZM11.249 20.5578C9.58095 20.5578 7.94812 20.1106 6.5263 19.2666L6.18969 19.0656L2.68287 19.985L3.61735 16.5636L3.39629 16.2119C2.46683 14.7348 1.97949 13.0317 1.97949 11.2783C1.97949 6.16875 6.13945 2.00879 11.254 2.00879C13.7309 2.00879 16.057 2.97342 17.8054 4.72683C19.5538 6.48024 20.6289 8.8064 20.6239 11.2833C20.6239 16.3978 16.3585 20.5578 11.249 20.5578ZM16.3333 13.6145C16.057 13.4738 14.6854 12.8006 14.4292 12.7101C14.173 12.6147 13.9871 12.5694 13.8012 12.8508C13.6153 13.1321 13.0827 13.7551 12.917 13.946C12.7562 14.1319 12.5904 14.1571 12.3141 14.0164C10.6762 13.1975 9.60105 12.5544 8.52087 10.7005C8.2345 10.2081 8.80724 10.2433 9.3398 9.17818C9.43023 8.99229 9.38501 8.83152 9.31468 8.69084C9.24434 8.55017 8.68666 7.17859 8.45556 6.62091C8.22947 6.07831 7.99836 6.15367 7.82754 6.14362C7.66677 6.13358 7.48088 6.13358 7.29499 6.13358C7.1091 6.13358 6.80765 6.20391 6.55142 6.48024C6.29519 6.76159 5.57675 7.43482 5.57675 8.8064C5.57675 10.178 6.57654 11.5043 6.71219 11.6902C6.85287 11.8761 8.67662 14.6896 11.475 15.9004C13.2435 16.6641 13.9368 16.7294 14.8211 16.5988C15.3587 16.5184 16.469 15.9255 16.7001 15.2724C16.9312 14.6193 16.9312 14.0616 16.8609 13.946C16.7956 13.8204 16.6097 13.7501 16.3333 13.6145Z" fill="#FAFAFA"/>
</svg>
