<svg width="22" height="22" viewBox="0 0 22 22" fill="none" xmlns="http://www.w3.org/2000/svg">
<path d="M11 21C5.4875 21 1 16.5125 1 11C1 5.4875 5.4875 1 11 1C16.5125 1 21 5.4875 21 11C21 16.5125 16.5125 21 11 21ZM11 2.25C6.175 2.25 2.25 6.175 2.25 11C2.25 15.825 6.175 19.75 11 19.75C15.825 19.75 19.75 15.825 19.75 11C19.75 6.175 15.825 2.25 11 2.25Z" fill="#141F2E" stroke="#141F2E" stroke-width="0.2"/>
<path d="M8.39371 20.632C8.17496 20.632 7.96879 20.5195 7.84989 20.3195C6.23132 17.5007 5.375 14.2756 5.375 11.0006C5.375 7.72556 6.23132 4.50699 7.85004 1.68163C8.01884 1.38169 8.39996 1.28166 8.70007 1.45032C9.00629 1.6254 9.11246 2.00668 8.93751 2.30664C7.42494 4.93793 6.62501 7.94414 6.62501 11.0006C6.62501 14.057 7.42494 17.0631 8.93751 19.7006C9.10632 20.0005 9.00629 20.3818 8.70621 20.5569C8.60632 20.6068 8.50001 20.6318 8.39371 20.6318L8.39371 20.632Z" fill="#141F2E" stroke="#141F2E" stroke-width="0.2"/>
<path d="M13.6059 20.6313C13.4996 20.6313 13.3935 20.6063 13.2934 20.5501C12.9935 20.3751 12.8935 19.9939 13.0621 19.6938C14.5747 17.0625 15.3746 14.0563 15.3746 10.9998C15.3746 7.94991 14.5747 4.93733 13.0621 2.30591C12.8933 2.00596 12.9996 1.62469 13.2934 1.44973C13.5934 1.27478 13.9747 1.38095 14.1435 1.68103C15.7683 4.50596 16.6247 7.73103 16.6247 10.9996C16.6247 14.2746 15.7683 17.4996 14.1496 20.3185C14.0309 20.5184 13.8247 20.631 13.6059 20.631V20.6313Z" fill="#141F2E" stroke="#141F2E" stroke-width="0.2"/>
<path d="M3.72103 17.525C3.48359 17.525 3.25228 17.3874 3.14596 17.15C3.00841 16.8312 3.15224 16.4625 3.46474 16.3249C5.84603 15.2812 8.38367 14.75 11.0022 14.75C13.6208 14.75 16.1522 15.2812 18.5337 16.3251C18.8524 16.4626 18.9961 16.8314 18.8524 17.1501C18.7149 17.4689 18.3462 17.6063 18.0274 17.4689C15.8149 16.5 13.4524 16 11.0024 16C8.55859 16 6.18988 16.4937 3.96488 17.4688C3.88996 17.5126 3.80235 17.525 3.72116 17.525H3.72103Z" fill="#141F2E" stroke="#141F2E" stroke-width="0.2"/>
<path d="M11.0022 7.25014C8.37717 7.25014 5.84575 6.71889 3.46467 5.67507C3.15217 5.53765 3.0085 5.16893 3.1459 4.85014C3.28345 4.53137 3.65218 4.38768 3.97097 4.53137C6.18972 5.5064 8.55847 6.00012 11.0024 6.00012C13.4463 6.00012 15.8149 5.5064 18.0338 4.53137C18.3526 4.39381 18.7213 4.53764 18.8589 4.85014C18.9965 5.16892 18.8526 5.53764 18.5401 5.67521C16.1588 6.71889 13.6212 7.25014 11.0026 7.25014H11.0022Z" fill="#141F2E" stroke="#141F2E" stroke-width="0.2"/>
<path d="M20.375 11.625H1.625C1.28125 11.625 1 11.3438 1 11C1 10.6562 1.28125 10.375 1.625 10.375H20.375C20.7188 10.375 21 10.6562 21 11C21 11.3438 20.7188 11.625 20.375 11.625Z" fill="#141F2E" stroke="#141F2E" stroke-width="0.2"/>
<path d="M11 21C10.6562 21 10.375 20.7188 10.375 20.375V1.625C10.375 1.28125 10.6562 1 11 1C11.3438 1 11.625 1.28125 11.625 1.625V20.375C11.625 20.7188 11.3438 21 11 21Z" fill="#141F2E" stroke="#141F2E" stroke-width="0.2"/>
</svg>
