<svg width="23" height="17" viewBox="0 0 23 17" fill="none" xmlns="http://www.w3.org/2000/svg">
<path d="M22.9949 5.92825C23.0452 4.47036 22.7264 3.02339 22.068 1.72168C21.6213 1.18755 21.0013 0.827102 20.3161 0.703136C17.482 0.44598 14.6362 0.34058 11.7909 0.387388C8.95596 0.338456 6.12041 0.440454 3.2963 0.69295C2.73796 0.794516 2.22125 1.05641 1.80923 1.44667C0.892544 2.29206 0.79069 3.73839 0.688836 4.96063C0.541058 7.1582 0.541058 9.36321 0.688836 11.5608C0.718303 12.2487 0.820731 12.9316 0.994398 13.5979C1.11721 14.1123 1.36568 14.5882 1.71756 14.9831C2.13238 15.394 2.66112 15.6708 3.23519 15.7775C5.43107 16.0486 7.64365 16.1609 9.8557 16.1136C13.4206 16.1646 16.5475 16.1136 20.2448 15.8285C20.833 15.7283 21.3766 15.4511 21.8032 15.034C22.0883 14.7487 22.3013 14.3995 22.4245 14.0155C22.7887 12.8977 22.9676 11.7279 22.9541 10.5524C22.9949 9.98203 22.9949 6.53937 22.9949 5.92825ZM9.48902 11.1635V4.85878L15.5188 8.02644C13.828 8.9635 11.5974 10.0228 9.48902 11.1635Z" fill="#FAFAFA"/>
</svg>
